PathFileType	4	(X/Y/Z)	20_2_33_p1_0-355.trc
DataRate	CameraRate	NumFrames	NumMarkers	Units	OrigDataRate	OrigDataStartFrame	OrigNumFrames
59.0	59.0	5	27	m	59.0	133	356
Frame#	Time	RHip			RKnee			RAnkle			RBigToe			RSmallToe			RHeel			LHip			LKnee			LAnkle			LBigToe			LSmallToe			LHeel			Neck			Head			Nose			RShoulder			RElbow			RWrist			RThumb			RIndex			RPinky			LShoulder			LElbow			LWrist			LThumb			LIndex			LPinky			
		X1	Y1	Z1	X2	Y2	Z2	X3	Y3	Z3	X4	Y4	Z4	X5	Y5	Z5	X6	Y6	Z6	X7	Y7	Z7	X8	Y8	Z8	X9	Y9	Z9	X10	Y10	Z10	X11	Y11	Z11	X12	Y12	Z12	X13	Y13	Z13	X14	Y14	Z14	X15	Y15	Z15	X16	Y16	Z16	X17	Y17	Z17	X18	Y18	Z18	X19	Y19	Z19	X20	Y20	Z20	X21	Y21	Z21	X22	Y22	Z22	X23	Y23	Z23	X24	Y24	Z24	X25	Y25	Z25	X26	Y26	Z26	X27	Y27	Z27	
133	2.2542372881355934	0.36460147165102635	0.5867403406860703	0.9643342012053652	0.3577392631048746	0.6913373392463436	1.352995841003107	0.35584484640646896	0.7956066408778308	1.7319530212245362	0.3146621007121824	0.6310336080071864	1.8013115809011908	0.38756855435791254	0.6583081890040444	1.8026072636781623	0.3365553256001203	0.909153201443631	1.7928542480442846	0.1565433236329533	0.5900405517737473	0.9719665889452633	0.15372565076972725	0.7074427056946849	1.3410121484487474	0.14258749744659727	0.818362631429947	1.7048083980595612	0.15292951331175042	0.6193529799143852	1.786084673561634	0.09623739939035901	0.689498143513597	1.7903171937262177	0.15912550951168808	0.8875006132272961	1.7643070830526506	0.2617663792809743	0.4471199861105872	0.4450434687916712	0.2693482682729582	0.35842097464192907	0.21526131054979605	0.259117861882365	0.31531608608387607	0.34572474743631576	0.39903635720898206	0.4507114814357326	0.5294785679573277	0.4559329030108278	0.5372360774712832	0.8021102844442928	0.331873243383841	0.41674864093410524	0.9939457852804308	0.2331326217652742	0.4159993959807353	1.0571022915893242	0.23103042832002077	0.43034229096306376	1.0687037937860135	0.2618589660732448	0.45784053082168547	1.1083628702550474	0.12079990307953077	0.5038778073681073	0.5248335912328168	0.08554816451787065	0.5014054387037606	0.7794918170866835	0.20133216241552573	0.46732702289517414	0.9835894432331869	0.27467845572397503	0.3903616750160867	1.0493457355044498	0.2721414979773731	0.3808196687823203	1.0603231274679619	0.2493989798552564	0.4388948671533212	1.0732474683317903
134	2.2711864406779663	0.3645794911329738	0.5870010720665894	0.964384806252661	0.3621584121208909	0.6917048034188179	1.3529417021515462	0.3558161235628955	0.7956210740367423	1.7319343553566893	0.3155032822786933	0.6290786520161249	1.7968144506606476	0.387266271078601	0.6576014545432423	1.8022773995828216	0.33646860802402917	0.9091618265392903	1.7926755657807822	0.1565788130266142	0.5901469337402985	0.9719376113680974	0.15372314937208315	0.7075068360584091	1.3410171658480028	0.14255446112472153	0.8184424672657685	1.7047981615816448	0.15253551780294963	0.6213862974941208	1.7820151083695872	0.09601100289134719	0.6900129543444337	1.7905092350009115	0.15912514190876234	0.8877892827270754	1.7644679486587642	0.2618045211838499	0.4471145790575655	0.4450736339444417	0.26926886329579264	0.3585607385807022	0.2152533322871565	0.25909098795591184	0.3153032690953238	0.3457653602046191	0.3990548793533284	0.4507050967463685	0.5295222284016488	0.45589504615318693	0.5375422214688224	0.8021518332729858	0.331873832480545	0.41671736194209985	0.9939630767095813	0.23319537416408198	0.41544765913681736	1.0569267752595009	0.2310685590885859	0.4298404457915342	1.0686398349944153	0.2580247373067712	0.45758664044313596	1.1085357341964004	0.12432161871350163	0.5160328592751607	0.5242775673899288	0.08561352205459757	0.5014995418452922	0.7794479169077918	0.20131027893409548	0.46729334722020016	0.9835078323445389	0.2744033788406671	0.39053928528267184	1.0492641230621427	0.27162864148456817	0.3809210869198151	1.060157506726642	0.24920617132151565	0.4389874978350838	1.0731393461858527
135	2.288135593220339	0.3686072107118398	0.6016299984968559	0.9696622055262538	0.36213244267156885	0.6917286755967053	1.3529230529241973	0.360550519498936	0.8107694507866103	1.7369453394934427	0.31471553034735766	0.6308408310784538	1.8012509716212644	0.3874423888938513	0.657661552408643	1.8023659049509122	0.3365767950477008	0.908861415066999	1.7928841044464843	0.1565394385611017	0.5900190295751956	0.9719159017864115	0.1537314198300948	0.7075348334371279	1.3410543940534267	0.1425249487348418	0.8184572019517264	1.704647463535643	0.15251095949779048	0.6212312400570064	1.7818729284451371	0.09497478957917921	0.691522389421444	1.7942516098453856	0.1591595678401621	0.8871420466442286	1.7638932732301686	0.2658125833325351	0.45947284019925355	0.4442114609811609	0.26936088927594865	0.3585147474722035	0.21531137558421823	0.26296621651560326	0.32614588749831613	0.34464221756937524	0.3990789946738702	0.4507915610829316	0.5295083610084811	0.45594422957493885	0.5370675006564615	0.8021313763181664	0.3318856959104151	0.41673356325028293	0.993945740882868	0.2331647853969245	0.41555154358672236	1.0568819607495783	0.23100113886535478	0.43005799390477883	1.0686426218543672	0.25795293309530626	0.4577810682264959	1.1084598927268947	0.12430475270304027	0.5160359347186386	0.5242126584576422	0.08557479822109303	0.5015149306716448	0.7793974710644738	0.20127240306799155	0.46730310133051567	0.9835004086755512	0.27449140249845694	0.3907593904694485	1.0493496954310622	0.27178261404915316	0.3812935412753562	1.060318427196624	0.2492889768802148	0.43892356968916996	1.0732449335881282
136	2.305084745762712	0.36402715828480614	0.588079608025965	0.9683253139280033	0.3587245340210018	0.6943093150990404	1.3581345737961634	0.3558399016182594	0.7956166577801964	1.7319213856072464	0.3154808769571029	0.6288951193811336	1.7966760433273736	0.38722781383509347	0.657433151662577	1.8021608253116845	0.3365451188834722	0.9090130518418398	1.7927620969355276	0.15589224185700465	0.5910904483607871	0.9754676523496386	0.15371435954042875	0.7074481723474056	1.340966641176353	0.1425820926073712	0.818537999887756	1.7048041448133582	0.15281639642796999	0.6195066681982663	1.7860813904760346	0.09600316676120853	0.6901165520180115	1.7905698570077462	0.15918841803123912	0.8868614814554885	1.7637728468619822	0.2658322689064011	0.45953745551070824	0.4442435515715528	0.2695703829929488	0.3605649452577324	0.21840711827332043	0.2631432659446952	0.32583140133042887	0.3479609961970942	0.3990433058851391	0.45065735109361305	0.5295047281834284	0.4515246649119299	0.5246116171152478	0.8014930115575475	0.33188924896165145	0.41663814463684423	0.9938614898311798	0.23311648462810286	0.4160371511616535	1.0571933704002248	0.23096120457408306	0.4304648289130283	1.0686462957594522	0.262027697182272	0.4572536353872495	1.1115448538551527	0.12429781009896568	0.5160550448430204	0.5243022456863561	0.08562889900352841	0.5017284970509596	0.7794926126076952	0.20490297231074614	0.4535434782089472	0.9818431136629316	0.2743770525546669	0.3926631462256358	1.0535926677135272	0.27225415190386704	0.3816866298994498	1.060665397288953	0.24946798842075515	0.4391179574981229	1.0733084960929664
137	2.3220338983050848	0.36454888699564353	0.5867054420675614	0.9642483917736762	0.3577591715873557	0.6912754333474918	1.3530130421214273	0.3605534466403728	0.8107428254479294	1.7368359477915998	0.31549603511342444	0.6293307001821646	1.7968213289276007	0.38734152476179273	0.6577681021916943	1.8022788360870676	0.3365429513465875	0.9091306035959886	1.792728139773464	0.1565678645851259	0.5897874964879556	0.9717157744797577	0.15453450142284186	0.7058333534191352	1.3363084419280096	0.14254932470455503	0.8185894013527067	1.7048045590450636	0.1527636214992734	0.6194389840981788	1.7860071356917802	0.09596786218393805	0.6901433654235163	1.7905915033291222	0.15898300441033614	0.887435755682472	1.7640159190701417	0.265803985408391	0.45953783544740284	0.44423668712854575	0.2697062641188879	0.3604950057866045	0.2184614269729294	0.2591836791741393	0.3148171260015231	0.3491243865463144	0.39903917780208226	0.4507146338962282	0.5295027084244264	0.4514644934025109	0.5244803128269697	0.8014432758386616	0.3318932037975434	0.416674051920653	0.9938784477549136	0.23317313393702188	0.4158081945461062	1.0570193659951654	0.2310541383168597	0.4298412326839463	1.0684832788586338	0.26222885493587617	0.4562431531178725	1.111679924870591	0.12429560282142296	0.5160616403853335	0.5243008381584179	0.08552013138781203	0.5015628051326568	0.7794265871988205	0.20488869702923812	0.4533227850282521	0.981770947240237	0.27428555449236475	0.3927158248681118	1.053588091250107	0.2722300996060748	0.38134533261797915	1.0605498209236188	0.24939454966422356	0.43911221644033616	1.0732580984609854
